# xmcd
#
# Track frame offsets: 
#        150
#        26469
#        55018
#        82217
#        119165
#        146260
#        164966
#        196579
#        215385
#        238391
#        261217
#        280070
#        306407
#        328816
#
# Disc length: 4673 seconds
#
# Revision: 4
# Processed by: cddbd v1.5.2PL0 Copyright (c) Steve Scherf et al.
# Submitted via: ExactAudioCopy v1.3
#
DISCID=d9123f0e
DTITLE=Various Artist - The Best Of (Private Investigations)
DYEAR=2005
DGENRE=blues
TTITLE0=Sultans Of Swing
TTITLE1=Love Over Gold
TTITLE2=Romeo and Juliet
TTITLE3=Tunnel Of Love
TTITLE4=Private Investigations
TTITLE5=Money For Nothing
TTITLE6=Brothers In Arms
TTITLE7=Walk Of Life
TTITLE8=On Every Street
TTITLE9=Going Home [Theme From The Local Hero]
TTITLE10=Why Aye Man
TTITLE11=Boom, Like That
TTITLE12=What It Is
TTITLE13=All The Roadrunning
EXTD=CDDBSort:dire_straits_mark_knopfler,best_of_private_investigation
EXTD=s - YEAR: 2005
EXTT0=
EXTT1=
EXTT2=
EXTT3=
EXTT4=
EXTT5=
EXTT6=
EXTT7=
EXTT8=
EXTT9=
EXTT10=
EXTT11=
EXTT12=
EXTT13=
PLAYORDER=
